<svg xmlns="http://www.w3.org/2000/svg" width="137" height="30" fill="none"><path fill="#FBF8F2" d="M.703 16.941c0-.796.106-1.664.317-2.601.234-.938.55-1.875.949-2.813A18.37 18.37 0 0 1 3.41 8.75 12.181 12.181 0 0 1 5.31 6.36a8.455 8.455 0 0 1 2.285-1.653 5.611 5.611 0 0 1 2.601-.633c.75 0 1.453.106 2.11.317.656.187 1.218.48 1.687.879.469.398.832.902 1.09 1.511.281.586.422 1.29.422 2.11-.516 0-.938-.13-1.266-.387a10.851 10.851 0 0 1-.879-.914 5.198 5.198 0 0 0-.879-.88c-.304-.257-.703-.386-1.195-.386-.726 0-1.43.188-2.11.563a7.885 7.885 0 0 0-1.863 1.511 12.088 12.088 0 0 0-1.511 2.145 25.114 25.114 0 0 0-1.125 2.426c-.305.797-.551 1.582-.739 2.355-.164.774-.246 1.442-.246 2.004 0 1.219.176 2.367.528 3.445A8.751 8.751 0 0 0 5.8 23.551c.68.773 1.523 1.383 2.531 1.828 1.008.445 2.156.668 3.445.668.82 0 1.594-.117 2.32-.352.75-.258 1.466-.527 2.145-.808a48.266 48.266 0 0 1 2.074-.844 5.715 5.715 0 0 1 2.04-.387c.093 0 .222.012.386.035.188 0 .352.024.492.07a.958.958 0 0 1 .422.247c.117.094.176.246.176.457 0 .844-.328 1.558-.984 2.144-.633.586-1.395 1.067-2.285 1.442-.891.351-1.817.61-2.778.773-.96.164-1.746.246-2.355.246-1.782 0-3.446-.28-4.992-.843-1.547-.586-2.895-1.407-4.043-2.461a11.346 11.346 0 0 1-2.707-3.797c-.657-1.5-.985-3.176-.985-5.028Zm22.606-2.707c0-.21.011-.421.035-.632.023-.235.07-.434.14-.598.07-.188.176-.34.317-.457.164-.117.387-.176.668-.176.234 0 .492.188.773.563.305.351.61.808.914 1.37.305.54.598 1.137.88 1.794.304.656.562 1.265.773 1.828.234.539.421 1.008.562 1.406.14.398.223.61.246.633.305-.82.645-1.711 1.02-2.672.375-.961.832-1.852 1.37-2.672a8.493 8.493 0 0 1 1.97-2.11c.773-.562 1.71-.843 2.812-.843.563 0 1.09.094 1.582.281.516.164.961.422 1.336.774.398.328.715.726.95 1.195.234.469.35 1.008.35 1.617 0 .516-.21.88-.632 1.09-.398.21-.855.316-1.371.316h-.352l-1.511-1.511c-.047 0-.082-.012-.106-.035h-.14c-.024-.024-.06-.036-.106-.036-.82 0-1.465.235-1.934.704-.445.445-.785 1.007-1.02 1.687a8.65 8.65 0 0 0-.456 2.11c-.047.726-.07 1.394-.07 2.003 0 .469.047.95.14 1.442.094.468.2.937.317 1.406.117.445.222.914.316 1.406.094.469.14.961.14 1.477 0 .984-.527 1.476-1.581 1.476-.586 0-1.196-.304-1.828-.914-.633-.633-1.266-1.43-1.899-2.39a33.087 33.087 0 0 1-1.758-3.164 45.567 45.567 0 0 1-1.476-3.41 37.983 37.983 0 0 1-1.02-2.989c-.234-.89-.351-1.547-.351-1.969Zm33.082 10.23c-.891.61-1.664 1.161-2.32 1.653-.633.469-1.255.867-1.864 1.195a7.936 7.936 0 0 1-1.969.739c-.68.164-1.523.246-2.531.246-2.18 0-3.797-.574-4.852-1.723-1.054-1.172-1.582-2.906-1.582-5.203 0-.89.118-1.816.352-2.777.234-.961.574-1.91 1.02-2.848.468-.96 1.02-1.863 1.652-2.707a12.45 12.45 0 0 1 2.144-2.285 10.207 10.207 0 0 1 2.532-1.547 7.138 7.138 0 0 1 2.883-.598c1.687.164 3.011.586 3.972 1.266a6.258 6.258 0 0 1 2.18 2.566c.492 1.032.832 2.192 1.02 3.48a50.63 50.63 0 0 1 .421 3.938c.117 1.36.258 2.72.422 4.078.164 1.36.504 2.614 1.02 3.762-.305.774-.598 1.313-.88 1.617-.257.329-.55.387-.878.176-.328-.21-.715-.726-1.16-1.547-.422-.82-.95-1.98-1.582-3.48Zm-12.13-3.023c0 1.336.247 2.32.739 2.954.516.609 1.418.914 2.707.914.961 0 1.875-.165 2.742-.493a7.68 7.68 0 0 0 2.32-1.406 7.047 7.047 0 0 0 1.583-2.18c.398-.843.597-1.78.597-2.812 0-.422.012-1.008.035-1.758a12.36 12.36 0 0 0-.14-2.285c-.117-.75-.34-1.395-.668-1.934-.328-.562-.82-.843-1.477-.843a6.333 6.333 0 0 0-3.375.949 9.488 9.488 0 0 0-2.672 2.355 11.488 11.488 0 0 0-1.758 3.2c-.421 1.148-.632 2.261-.632 3.34Zm18.141-3.023c0-.984.211-2.016.633-3.094a11.124 11.124 0 0 1 1.758-2.918 10.156 10.156 0 0 1 2.496-2.215c.961-.586 1.969-.879 3.023-.879.54 0 1.079.094 1.618.282.539.187 1.02.457 1.441.808a3.91 3.91 0 0 1 1.055 1.266c.281.492.422 1.043.422 1.652a4.5 4.5 0 0 1-1.16-.14c-.329-.094-.657-.2-.985-.317a8.27 8.27 0 0 0-.984-.351 3.46 3.46 0 0 0-1.02-.14c-.96 0-1.746.245-2.355.737a5.1 5.1 0 0 0-1.406 1.793 8.636 8.636 0 0 0-.739 2.356c-.117.82-.176 1.594-.176 2.32v.668c.024.328.036.68.036 1.055.023.351.035.691.035 1.02.023.327.047.55.07.667.258.563.504.996.738 1.301.258.305.528.54.809.703.281.14.586.235.914.281.328.024.715.036 1.16.036.61 0 1.137-.094 1.582-.282a7.55 7.55 0 0 0 1.301-.668c.398-.257.773-.539 1.125-.843a9.416 9.416 0 0 1 1.09-.88 5.46 5.46 0 0 1 1.265-.667 4.227 4.227 0 0 1 1.583-.282c0 1.149-.212 2.168-.633 3.06a6.345 6.345 0 0 1-1.723 2.284c-.727.633-1.594 1.125-2.602 1.477-.984.328-2.062.492-3.234.492-1.102 0-2.098-.375-2.988-1.125-.867-.75-1.617-1.664-2.25-2.742a15.477 15.477 0 0 1-1.407-3.48c-.328-1.22-.492-2.297-.492-3.235Zm16.524-7.137c0-.07.011-.129.035-.176a.58.58 0 0 1 .035-.175 5.96 5.96 0 0 1 .422-.457c.188-.188.305-.282.351-.282h7.067c0-.257-.035-.668-.105-1.23-.07-.563-.141-1.184-.212-1.863a20.883 20.883 0 0 1-.035-2.11 8.43 8.43 0 0 1 .282-2.004c.187-.609.468-1.101.843-1.476.399-.399.95-.598 1.653-.598 0 2.367.164 4.266.492 5.695.328 1.43.762 2.532 1.3 3.305.563.774 1.196 1.277 1.9 1.512.702.234 1.417.34 2.144.316.75-.047 1.476-.164 2.18-.351A14.769 14.769 0 0 1 99.14 11c.562-.07 1.007-.012 1.336.176.328.164.492.574.492 1.23 0 .492-.117.844-.352 1.055-.211.21-.633.375-1.265.492-.188.024-.504.07-.95.14a61.71 61.71 0 0 1-1.441.141c-.54.047-1.113.106-1.723.176-.61.047-1.183.094-1.722.14-.54.048-1.032.083-1.477.106h-.984c0 .117-.012.317-.036.598a8.502 8.502 0 0 0-.035.562c0 1.032.164 2.04.493 3.024.328.96.68 1.922 1.054 2.883.399.96.762 1.922 1.09 2.883.328.96.492 1.956.492 2.988 0 .187-.023.386-.07.597a1.142 1.142 0 0 1-.211.528c-.094.14-.246.246-.457.316-.188.094-.457.082-.809-.035-.89-.234-1.558-.738-2.004-1.512-.421-.773-.738-1.687-.949-2.742a25.57 25.57 0 0 1-.422-3.41 34.012 34.012 0 0 0-.351-3.34c-.14-1.055-.375-1.945-.703-2.672-.328-.75-.856-1.207-1.582-1.37l-6.786-1.548c-.093 0-.234-.094-.421-.281-.188-.21-.305-.363-.352-.457a.392.392 0 0 1-.035-.176.49.49 0 0 1-.035-.21Zm23.379 3.375v-.738c.023-.375.035-.762.035-1.16v-1.09c.023-.352.035-.598.035-.738.164-.282.352-.551.563-.809.234-.281.468-.469.703-.562.257-.118.527-.141.808-.07.305.07.61.304.914.702v.739a30.4 30.4 0 0 0-.14.843c-.071.422-.153.891-.246 1.407-.094.515-.188.996-.282 1.441-.07.422-.105.691-.105.809 0 .445.047 1.008.14 1.687.094.656.223 1.348.387 2.074.188.727.41 1.454.668 2.18.281.727.61 1.383.985 1.969a6.63 6.63 0 0 0 1.23 1.406 2.516 2.516 0 0 0 1.617.563c.75 0 1.406-.2 1.969-.598a5.598 5.598 0 0 0 1.512-1.547 8.636 8.636 0 0 0 1.019-2.145 18.24 18.24 0 0 0 .668-2.39 23.174 23.174 0 0 0 .457-4.324c0-.563-.047-1.09-.14-1.582a15.616 15.616 0 0 0-.282-1.512 41.54 41.54 0 0 1-.316-1.441c-.07-.493-.106-.985-.106-1.477 0-.445.153-.762.457-.95a2.162 2.162 0 0 1 1.09-.28c.493 0 .891.152 1.196.457.304.28.539.644.703 1.09.187.445.304.96.351 1.546.071.563.106 1.125.106 1.688 0 .562-.012 1.101-.035 1.617-.024.492-.036.89-.036 1.195 0 .797-.058 1.7-.175 2.707a19.963 19.963 0 0 1-.633 3.13 22.539 22.539 0 0 1-1.09 3.128 11.885 11.885 0 0 1-1.582 2.777 7.617 7.617 0 0 1-2.145 1.934c-.796.492-1.699.738-2.707.738-1.054 0-1.98-.246-2.777-.738a7.215 7.215 0 0 1-2.039-2.004 13.947 13.947 0 0 1-1.371-2.848 22.776 22.776 0 0 1-.879-3.164 38.509 38.509 0 0 1-.422-3.058 38.314 38.314 0 0 1-.105-2.602Zm24.82 12.762c.375-.258.82-.586 1.336-.984a40.647 40.647 0 0 0 1.617-1.336 18.085 18.085 0 0 0 1.512-1.477c.469-.515.832-1.008 1.09-1.476.281-.493.422-.95.422-1.372 0-.421-.211-.773-.633-1.054-.75 0-1.571.035-2.461.105-.891.047-1.781.07-2.672.07a18.807 18.807 0 0 1-2.602-.246 6.705 6.705 0 0 1-2.214-.773 4.26 4.26 0 0 1-1.582-1.582c-.376-.703-.563-1.594-.563-2.672 0-1.266.234-2.402.703-3.41a9.344 9.344 0 0 1 1.934-2.707 13.581 13.581 0 0 1 2.672-2.074 22.989 22.989 0 0 1 3.023-1.547 4.495 4.495 0 0 1 1.688.879c.515.422.96.89 1.335 1.406a2.062 2.062 0 0 1-.984 1.195 8.328 8.328 0 0 1-1.652.739l-1.934.668a7.33 7.33 0 0 0-1.863.949c-.539.375-.996.879-1.371 1.511-.375.61-.563 1.418-.563 2.426 0 .75.188 1.301.563 1.653.375.351.867.597 1.476.738.61.117 1.301.164 2.075.14a86.268 86.268 0 0 0 2.355-.175 28 28 0 0 1 2.391-.106c.773-.023 1.465.07 2.074.282.609.187 1.09.503 1.441.949.375.445.563 1.101.563 1.968 0 .375-.129.856-.387 1.442a12.296 12.296 0 0 1-.984 1.898 15.016 15.016 0 0 1-1.442 1.97 15.667 15.667 0 0 1-1.722 1.792c-.586.516-1.184.95-1.793 1.3-.586.329-1.137.493-1.653.493-.492 0-.82-.176-.984-.527a2.815 2.815 0 0 1-.211-1.055Z"/></svg>